<svg width="35" height="35" viewBox="0 0 35 35" fill="none" xmlns="http://www.w3.org/2000/svg">
<path fill-rule="evenodd" clip-rule="evenodd" d="M5.25 0C2.35051 0 0 2.3505 0 5.25V29.75C0 32.6495 2.3505 35 5.25 35H29.75C32.6495 35 35 32.6495 35 29.75V5.25C35 2.35051 32.6495 0 29.75 0H5.25ZM8.75 10.5C9.7165 10.5 10.5 9.7165 10.5 8.75C10.5 7.7835 9.7165 7 8.75 7C7.7835 7 7 7.7835 7 8.75C7 9.7165 7.7835 10.5 8.75 10.5ZM8.75 14C7.7835 14 7 14.7835 7 15.75V26.25C7 27.2165 7.7835 28 8.75 28C9.7165 28 10.5 27.2165 10.5 26.25V15.75C10.5 14.7835 9.7165 14 8.75 14ZM17.5 21C17.5 19.067 19.067 17.5 21 17.5C22.933 17.5 24.5 19.067 24.5 21V26.25C24.5 27.2165 25.2835 28 26.25 28C27.2165 28 28 27.2165 28 26.25V21C28 17.134 24.866 14 21 14C19.6605 14 18.4088 14.3763 17.345 15.0288C17.0702 14.4221 16.4594 14 15.75 14C14.7835 14 14 14.7835 14 15.75V26.25C14 27.2165 14.7835 28 15.75 28C16.7165 28 17.5 27.2165 17.5 26.25V21Z" fill="#FFE6E6"/>
</svg>
