<svg width="35" height="35" viewBox="0 0 35 35" fill="none" xmlns="http://www.w3.org/2000/svg">
<path fill-rule="evenodd" clip-rule="evenodd" d="M5.24999 0C2.3505 0 0 2.3505 0 5.24999V29.7499C0 32.6494 2.3505 34.9999 5.24999 34.9999H29.7499C32.6494 34.9999 34.9999 32.6494 34.9999 29.7499V5.24999C34.9999 2.3505 32.6494 0 29.7499 0H5.24999ZM19.25 6.99999C20.2165 6.99999 21 7.78349 21 8.74998C21 10.683 22.567 12.25 24.5 12.25C25.4665 12.25 26.25 13.0335 26.25 14C26.25 14.9665 25.4665 15.75 24.5 15.75C23.225 15.75 22.0296 15.4091 21 14.8135V21.875L21 21.8806C20.9969 25.2608 18.2558 27.9999 14.875 27.9999C11.4922 27.9999 8.74998 25.2577 8.74998 21.8749C8.74998 19.1147 10.8029 16.3636 13.6518 15.7853C14.599 15.593 15.5227 16.205 15.715 17.1522C15.9073 18.0994 15.2953 19.0231 14.3481 19.2153C13.2336 19.4416 12.25 20.6718 12.25 21.8749C12.25 23.3247 13.4252 24.4999 14.875 24.4999C16.3247 24.4999 17.5 23.3247 17.5 21.8749V8.74998C17.5 7.78349 18.2835 6.99999 19.25 6.99999Z" fill="#FFE6E6"/>
</svg>
