<svg width="119" height="138" viewBox="0 0 119 138" fill="none" xmlns="http://www.w3.org/2000/svg">
<mask id="mask0_101_80" style="mask-type:alpha" maskUnits="userSpaceOnUse" x="-24" y="-30" width="168" height="168">
<circle cx="59.8863" cy="54.1404" r="83.8303" fill="#C4C4C4"/>
</mask>
<g mask="url(#mask0_101_80)">
<path d="M33.2542 8.02918C33.2542 8.02918 19.5125 9.69795 12.1661 35.7831C10.6745 41.0878 12.8094 47.968 13.4713 54.9042C14.1705 62.2226 8.42768 63.5091 7.5793 69.5596C6.71228 75.7965 9.69556 80.2435 8.08271 85.5202C6.21816 91.5894 2.81534 94.0879 1.55676 99.5044C0.344798 104.688 2.35853 108.259 2.03223 112.556C1.76187 116.155 -0.373043 119.791 1.45422 123.408C1.45422 123.408 4.25108 123.632 8.80992 123.967C9.91933 120.453 11.3644 116.938 11.3644 113.414C11.2902 117.008 11.4272 120.604 11.7746 124.182L17.6292 124.573C17.8352 123.716 17.9354 122.836 17.9276 121.954C17.9276 119.064 16.9953 116.267 16.2868 113.451C15.5782 110.636 15.2426 107.606 16.2868 104.902C17.5547 101.583 20.771 99.2527 21.8804 95.8778C22.9898 92.503 21.7966 88.8764 20.799 85.4829C19.8015 82.0894 19.0556 78.1925 20.9016 75.1719C22.3559 72.7853 25.1434 71.4428 26.4952 69.0189C28.2759 65.8678 27.1851 61.8869 27.9402 58.3536C28.8166 54.2609 32.2008 51.0259 36.0791 49.4503C39.9574 47.8748 44.2645 47.7443 48.4318 48.0892C53.3202 48.4188 58.1116 49.6119 62.5838 51.6132L60.7192 7.98255L33.2542 8.02918Z" fill="#56546E"/>
<path d="M36.0885 49.497C32.2102 51.0725 28.826 54.3075 27.9497 58.4002C27.1945 61.9336 28.2853 65.9144 26.5046 69.0655C25.1342 71.4894 22.3467 72.7946 20.911 75.2186C19.0464 78.2392 19.8109 82.1268 20.8084 85.5296C21.806 88.9324 22.9992 92.559 21.8898 95.9245C20.7804 99.29 17.5547 101.63 16.2962 104.949C15.2707 107.653 15.6529 110.682 16.2962 113.498C16.9394 116.313 17.8997 119.092 17.937 122C17.9448 122.882 17.8446 123.762 17.6386 124.62C31.5016 125.552 51.4338 126.587 65.8002 126.326L62.6025 51.6599C58.1303 49.6585 53.3389 48.4654 48.4505 48.1358C44.2738 47.7909 39.9574 47.9214 36.0885 49.497Z" fill="#56546E"/>
<path d="M33.8509 7.2835C26.1335 10.1891 19.6773 15.7057 15.6037 22.8756C11.53 30.0454 10.096 38.4155 11.5508 46.5325C12.1195 49.7022 13.1171 53.0584 12.017 56.0697C10.9169 59.0809 7.78438 61.2252 6.61903 64.311C4.5587 69.7555 9.21081 75.6009 8.64212 81.3904C8.01749 87.7951 1.26776 92.2981 0.56855 98.7028C0.195639 102.078 1.59409 105.35 2.34924 108.66C3.39805 113.29 3.19859 118.116 1.77123 122.644" stroke="#56546E" stroke-width="1.01191" stroke-miterlimit="10"/>
<path d="M101.46 113.498C102.122 110.701 102.504 107.653 101.46 104.949C100.192 101.63 96.9755 99.2993 95.8661 95.9245C94.7567 92.5496 95.95 88.9231 96.9382 85.5296C97.9264 82.1361 98.6816 78.2392 96.8357 75.2186C95.3907 72.8319 92.5938 71.4894 91.242 69.0655C89.4614 65.9144 90.5521 61.9336 89.797 58.4002C88.9206 54.3075 85.5365 51.0725 81.6582 49.497C77.7799 47.9214 73.4728 47.7909 69.3055 48.1358C64.9201 48.4507 60.6092 49.438 56.5239 51.0632L53.2982 126.307C66.8629 126.55 86.1331 125.254 100.024 124.247C99.8853 123.5 99.8198 122.741 99.8283 121.982C99.8563 119.11 100.798 116.313 101.46 113.498Z" fill="#56546E"/>
<path d="M117.066 112.603C116.731 108.268 118.744 104.697 117.542 99.5511C116.274 94.1252 112.88 91.6267 111.016 85.5669C109.412 80.2902 112.395 75.8433 111.519 69.6063C110.671 63.5558 104.937 62.2693 105.627 54.9509C106.289 48.0147 107.576 41.3023 106.942 35.8299C103.595 7.03175 71.1887 0.347309 71.1887 0.347309L58.3792 8.07588L56.5147 51.1099C60.5999 49.4847 64.9108 48.4974 69.2962 48.1825C73.4635 47.8376 77.78 47.9681 81.6489 49.5437C85.5179 51.1192 88.9114 54.3542 89.7877 58.4469C90.5428 61.9803 89.4521 65.9611 91.2327 69.1122C92.6032 71.5361 95.4 72.8413 96.8264 75.2652C98.691 78.2858 97.9265 82.1734 96.9289 85.5762C95.9314 88.9791 94.7474 92.6056 95.8568 95.9712C96.9663 99.3367 100.183 101.677 101.451 104.996C102.476 107.699 102.094 110.729 101.451 113.545C100.807 116.36 99.847 119.138 99.819 122.047C99.8105 122.807 99.8761 123.565 100.015 124.312L109.869 123.511C109.869 122.168 109.03 118.56 109.03 113.582C110.895 116.379 110.214 118.84 112.06 123.175C113.682 123.113 115.306 123.217 116.908 123.483C119.854 119.614 117.337 116.202 117.066 112.603Z" fill="#56546E"/>
<path d="M74.7128 2.07203C82.6651 3.72217 90.1979 3.68488 100.742 16.6715C105.851 22.9737 108.965 34.5527 107.268 42.4957C106.121 47.9775 103.539 53.7856 105.823 58.8945C107.343 62.26 110.745 64.4881 112.162 67.9282C114.913 74.5288 109.272 82.593 112.405 89.0164C113.337 90.881 114.941 92.4006 116.087 94.1812C118.763 98.3112 119.816 104.585 116.013 111.54C113.654 115.847 119.602 117.367 115.565 122.653" stroke="#56546E" stroke-width="1.01191" stroke-miterlimit="10"/>
<path d="M89.3681 95.0296C86.1242 91.894 82.3112 89.4069 78.1341 87.7019C64.1499 91.431 49.5411 92.5031 34.8391 89.3614C32.372 90.7867 30.0841 92.5018 28.0241 94.4703C47.574 102.758 69.38 101.593 89.3681 95.0296Z" fill="#56546E" stroke="#56546E" stroke-width="1.74468" stroke-miterlimit="10"/>
<path d="M93.955 100.558C92.6233 98.56 91.086 96.7071 89.3682 95.0295C69.3801 101.555 47.5741 102.758 28.0242 94.4701C25.6314 96.7556 23.5359 99.3335 21.7873 102.143C45.1129 110.971 70.8998 109.377 93.955 100.558Z" fill="white" stroke="#56546E" stroke-width="1.74468" stroke-miterlimit="10"/>
<path d="M100.462 117.218C99.9482 114.425 99.1997 111.681 98.2248 109.014C73.6965 118.029 43.8916 116.351 18.3564 108.706C17.2286 111.354 16.2939 114.08 15.5596 116.863C42.4186 126.447 74.0881 128.172 100.462 117.218Z" fill="white" stroke="#56546E" stroke-width="1.74468" stroke-miterlimit="10"/>
<path d="M13.0145 138.185H45.1594C34.324 137.365 23.5879 135.542 13.089 132.74C12.9212 135.938 13.0145 137.998 13.0145 138.185Z" fill="#56546E" stroke="#56546E" stroke-width="1.74468" stroke-miterlimit="10"/>
<path d="M101.329 123.958C99.9153 124.68 98.4618 125.321 96.9756 125.879C70.1539 134.502 39.8828 135.36 13.9188 124.611C13.5011 127.304 13.2242 130.018 13.0891 132.74C23.588 135.542 34.3241 137.365 45.1595 138.185H69.3987C80.3126 137.373 91.0794 135.181 101.441 131.659C101.551 129.092 101.514 126.521 101.329 123.958Z" fill="white" stroke="#56546E" stroke-width="1.74468" stroke-miterlimit="10"/>
<path d="M101.469 131.687C91.1072 135.209 80.3404 137.401 69.4265 138.213H100.919C101.23 136.05 101.414 133.871 101.469 131.687Z" fill="#56546E" stroke="#56546E" stroke-width="1.74468" stroke-miterlimit="10"/>
<path d="M96.9755 125.879C98.4617 125.321 99.9153 124.68 101.329 123.958C101.17 121.697 100.88 119.446 100.462 117.218C74.0881 128.144 42.4185 126.447 15.5409 116.864C14.8588 119.414 14.3173 122.001 13.9188 124.611C39.8827 135.36 70.1539 134.502 96.9755 125.879Z" fill="#56546E" stroke="#56546E" stroke-width="1.74468" stroke-miterlimit="10"/>
<path d="M98.2247 109.014C97.1393 106.037 95.7061 103.199 93.9549 100.558C70.8997 109.377 45.1128 110.972 21.7872 102.143C20.483 104.23 19.3362 106.411 18.3564 108.669C43.8915 116.351 73.6965 118.029 98.2247 109.014Z" fill="#56546E" stroke="#56546E" stroke-width="1.74468" stroke-miterlimit="10"/>
<path d="M78.1342 87.7019C72.5406 85.3712 65.6324 83.9728 57.1207 83.9728C47.9004 83.9728 40.61 86.0424 34.8392 89.352C49.5412 92.5031 64.1314 91.3844 78.1342 87.7019Z" fill="white" stroke="#56546E" stroke-width="1.74468" stroke-miterlimit="10"/>
<path d="M46.4553 84.8305C46.4553 84.8305 46.6511 96.8009 59.2741 96.9501C71.8972 97.0992 73.0998 85.7627 73.0998 85.7627C73.0998 85.7627 57.7079 82.3879 46.4553 84.8305Z" fill="white" stroke="#56546E" stroke-width="1.74468" stroke-miterlimit="10"/>
<path d="M50.9023 82.2014L51.4618 88.8299C51.4618 88.8299 52.4965 93.4913 59.6378 93.4913C67.6368 93.4913 68.8115 88.8299 68.8115 88.8299L68.914 80.5979V78.7334C63.628 81.0361 55.0883 81.9031 50.9023 82.2014Z" fill="white" stroke="#56546E" stroke-width="1.74468" stroke-miterlimit="10"/>
<path d="M69.0259 72.3751L50.2498 74.3516L50.7346 80.0944L50.9024 82.2014C55.0883 81.903 63.6373 81.036 68.942 78.696L69.0259 72.3751Z" fill="#56546E" stroke="#56546E" stroke-width="1.74468" stroke-miterlimit="10"/>
<path d="M84.828 22.3584C84.828 22.3584 89.2749 34.0025 89.2749 51.0073C89.2749 64.2736 78.6843 77.2603 62.4812 78.3137C47.2571 79.302 31.4363 73.1769 26.691 51.8184C21.9457 30.4599 28.6674 13.4644 48.0495 8.71912C67.4316 3.97382 80.8751 9.11068 84.828 22.3584Z" fill="white" stroke="#56546E" stroke-width="1.74468" stroke-miterlimit="10"/>
<path d="M54.1374 2.78049C54.1374 2.78049 11.8306 -3.81072 21.5076 49.6648C22.6715 50.0982 23.9197 50.2571 25.155 50.1294C26.3904 50.0016 27.5796 49.5906 28.6302 48.9283C29.3201 48.4715 29.1336 45.1992 30.0007 44.8542C31.222 44.3322 33.7298 40.8734 35.2587 40.2768C35.2587 40.2768 35.324 33.1914 36.5173 32.8185C37.4496 32.5015 38.0742 39.3911 39.0811 39.0928C44.8798 37.3867 60.9244 35.1865 68.5877 35.4569C69.8276 35.5035 71.1515 27.0663 71.1515 27.0663C72.4287 27.2062 73.5381 37.0044 74.8806 37.2375C76.9523 37.7704 78.9641 38.5139 80.8845 39.4563L82.516 34.1796C83.3737 34.7017 82.6651 40.4259 83.7372 41.0972C84.5017 41.5633 86.4688 44.3881 87.4664 44.9288C88.1935 45.339 87.5409 46.6163 88.2681 47.0637C90.8971 48.6952 94.6169 48.6486 95.2509 49.7394C95.8848 50.8301 103.259 26.4324 91.6803 12.9144C77.4071 -3.81073 62.7983 -0.76217 54.1374 2.78049Z" fill="#56546E"/>
<path d="M86.0771 48.1172C86.0771 48.1172 97.4975 43.9592 98.0942 55.678C98.5696 65.1872 90.2444 67.0518 85.1449 63.5744" fill="white"/>
<path d="M86.0771 48.1172C86.0771 48.1172 97.4975 43.9592 98.0942 55.678C98.5696 65.1872 90.2444 67.0518 85.1449 63.5744" stroke="#56546E" stroke-width="1.74468" stroke-miterlimit="10"/>
<path d="M86.5247 61.253C86.5584 61.2613 86.5935 61.2613 86.6272 61.253C86.6826 61.2268 86.7253 61.1798 86.7463 61.1222C86.7672 61.0646 86.7646 61.0011 86.7391 60.9454C86.7391 60.8895 84.2126 55.2585 88.1375 52.6388C88.7132 52.2132 89.3704 51.9107 90.0681 51.7503C90.7659 51.5899 91.4892 51.575 92.193 51.7065C93.6798 52.1371 94.9652 53.0821 95.8195 54.3728C95.8522 54.4242 95.9036 54.4607 95.9628 54.4746C96.022 54.4886 96.0844 54.4788 96.1365 54.4474C96.1894 54.4163 96.2279 54.3655 96.2436 54.3062C96.2593 54.2468 96.251 54.1837 96.2204 54.1304C95.3108 52.7203 93.9135 51.6947 92.2955 51.2497C91.5281 51.1025 90.7385 51.1177 89.9774 51.2944C89.2163 51.471 88.5006 51.8051 87.8765 52.2752C83.616 55.1186 86.2823 61.1039 86.3103 61.1691C86.3363 61.1998 86.3695 61.2235 86.4069 61.2382C86.4443 61.2528 86.4848 61.2579 86.5247 61.253Z" fill="#56546E"/>
<path d="M92.3048 56.6569C92.3545 56.6589 92.4036 56.645 92.4448 56.6171C92.4861 56.5893 92.5173 56.549 92.534 56.5021C92.5507 56.4552 92.5519 56.4042 92.5375 56.3566C92.5231 56.3089 92.4938 56.2672 92.4539 56.2374C92.4539 56.2374 88.4731 53.3286 85.5458 56.2374C85.5013 56.2819 85.4762 56.3422 85.4762 56.4052C85.4762 56.4681 85.5013 56.5285 85.5458 56.573C85.5903 56.6175 85.6506 56.6425 85.7136 56.6425C85.7765 56.6425 85.8369 56.6175 85.8814 56.573C88.5197 53.9253 92.137 56.573 92.1649 56.573C92.2022 56.6142 92.2509 56.6434 92.3048 56.6569Z" fill="#56546E"/>
<path d="M60.4674 62.5956C59.5446 62.6789 58.6239 62.4158 57.8845 61.8574C57.1452 61.299 56.6402 60.4854 56.4679 59.575C56.4599 59.5145 56.4759 59.4533 56.5125 59.4045C56.5491 59.3557 56.6034 59.3232 56.6637 59.314C56.7267 59.306 56.7902 59.323 56.8407 59.3613C56.8913 59.3997 56.9248 59.4563 56.9341 59.519C56.9341 59.6402 57.3629 62.4557 61.12 62.0921C61.1506 62.0882 61.1818 62.0905 61.2115 62.0987C61.2413 62.1069 61.2691 62.121 61.2934 62.1401C61.3177 62.1592 61.338 62.1829 61.353 62.2099C61.368 62.2369 61.3776 62.2665 61.381 62.2972C61.3863 62.3601 61.3668 62.4225 61.3268 62.4713C61.2867 62.52 61.2293 62.5512 61.1666 62.5583C60.9242 62.5769 60.6911 62.5956 60.4674 62.5956Z" fill="#56546E"/>
<path d="M30.0659 48.1172C30.0659 48.1172 18.6454 43.9592 18.0581 55.678C17.5547 65.4949 26.6631 67.173 31.716 63.2015" fill="white"/>
<path d="M30.0659 48.1172C30.0659 48.1172 18.6454 43.9592 18.0581 55.678C17.5547 65.4949 26.6631 67.173 31.716 63.2015" stroke="#56546E" stroke-width="1.74468" stroke-miterlimit="10"/>
<path d="M38.9784 43.2042C38.9784 43.2042 36.6477 41.1252 41.5888 38.5428C46.5298 35.9604 48.2546 36.5197 49.047 37.8156C49.8394 39.1115 48.6461 40.771 45.8493 42.1787C42.4931 43.8475 40.2463 44.3975 38.9784 43.2042Z" fill="#56546E"/>
<path d="M48.4504 51.1285C48.3605 51.5763 48.1454 51.9894 47.83 52.3199C47.5147 52.6504 47.1121 52.8846 46.669 52.9955C46.2259 53.1063 45.7604 53.0891 45.3266 52.946C44.8928 52.8029 44.5085 52.5397 44.2184 52.1869C43.9282 51.8342 43.744 51.4063 43.6872 50.9531C43.6305 50.4999 43.7035 50.0398 43.8977 49.6264C44.0919 49.2129 44.3993 48.8631 44.7844 48.6174C45.1695 48.3717 45.6164 48.2403 46.0731 48.2384C46.7685 48.3138 47.4067 48.6585 47.8511 49.1987C48.2954 49.7389 48.5106 50.4316 48.4504 51.1285Z" fill="#56546E"/>
<path d="M79.3182 43.2042C79.3182 43.2042 81.6582 41.1252 76.7172 38.5428C71.7761 35.9604 70.042 36.5197 69.2589 37.8156C68.4758 39.1115 69.6598 40.771 72.466 42.1787C75.8128 43.8475 78.0503 44.3975 79.3182 43.2042Z" fill="#56546E"/>
<path d="M68.8114 51.1285C68.9014 51.5767 69.1168 51.9902 69.4326 52.3208C69.7483 52.6514 70.1515 52.8856 70.5951 52.996C71.0388 53.1065 71.5046 53.0888 71.9385 52.945C72.3725 52.8011 72.7567 52.537 73.0464 52.1833C73.3362 51.8297 73.5196 51.4011 73.5753 50.9473C73.631 50.4936 73.5568 50.0333 73.3612 49.6201C73.1656 49.2069 72.8567 48.8576 72.4705 48.613C72.0843 48.3685 71.6365 48.2386 71.1793 48.2384C70.4856 48.3161 69.8498 48.6618 69.4074 49.2017C68.965 49.7416 68.7511 50.4331 68.8114 51.1285Z" fill="#56546E"/>
<path d="M29.6092 61.2531C29.5787 61.2615 29.5464 61.2615 29.5159 61.2531C29.4877 61.241 29.4622 61.2233 29.4408 61.2013C29.4194 61.1792 29.4026 61.1531 29.3914 61.1245C29.3801 61.0959 29.3746 61.0654 29.3751 61.0347C29.3757 61.0039 29.3824 60.9736 29.3948 60.9455C29.3948 60.8896 31.9306 55.2586 27.9964 52.6389C27.4221 52.214 26.7665 51.9119 26.0703 51.7516C25.3742 51.5912 24.6525 51.5759 23.9502 51.7066C22.4634 52.1372 21.178 53.0822 20.3237 54.3729C20.2893 54.4249 20.2363 54.4617 20.1755 54.4756C20.1147 54.4894 20.0509 54.4794 19.9974 54.4475C19.946 54.4149 19.9095 54.3634 19.8955 54.3042C19.8816 54.245 19.8914 54.1826 19.9228 54.1305C20.8298 52.7179 22.2282 51.6916 23.8477 51.2498C24.6136 51.1039 25.4015 51.1198 26.1609 51.2965C26.9203 51.4731 27.6344 51.8065 28.2574 52.2753C32.5179 55.1187 29.8516 61.104 29.8236 61.1692C29.7982 61.2006 29.7651 61.2248 29.7275 61.2395C29.6899 61.2542 29.6491 61.2589 29.6092 61.2531Z" fill="#56546E"/>
<path d="M23.8289 56.6569C23.7925 56.6585 23.7562 56.6508 23.7236 56.6344C23.6909 56.6181 23.663 56.5938 23.6424 56.5637C23.6201 56.5427 23.6024 56.5175 23.5902 56.4894C23.5781 56.4613 23.5718 56.4311 23.5718 56.4005C23.5718 56.3699 23.5781 56.3397 23.5902 56.3116C23.6024 56.2836 23.6201 56.2583 23.6424 56.2374C23.6424 56.2374 27.6233 53.3286 30.5413 56.2374C30.5858 56.2819 30.6108 56.3422 30.6108 56.4052C30.6108 56.4681 30.5858 56.5285 30.5413 56.573C30.4968 56.6175 30.4365 56.6425 30.3735 56.6425C30.3106 56.6425 30.2502 56.6175 30.2057 56.573C27.5767 53.9253 23.9594 56.573 23.9221 56.573C23.8978 56.6077 23.8659 56.6363 23.8289 56.6569Z" fill="#56546E"/>
<path d="M61.2692 56.9179C61.2245 56.9201 61.1802 56.9088 61.142 56.8855C61.1038 56.8622 61.0734 56.8281 61.0548 56.7874C61.0289 56.7303 61.0261 56.6654 61.0469 56.6063C61.0678 56.5472 61.1107 56.4985 61.1667 56.4704C62.314 55.9139 63.2663 55.0235 63.8983 53.9159C64.2185 53.2516 64.3488 52.5116 64.2748 51.7778C64.2007 51.044 63.9253 50.345 63.4788 49.758C63.2007 49.5029 62.8436 49.3507 62.467 49.327C62.0904 49.3032 61.717 49.4093 61.4091 49.6275L61.2879 49.702C58.3978 51.3801 57.0926 50.6343 56.5053 49.702C55.4332 47.996 56.3655 34.5432 56.5053 33.0142C56.5162 32.9592 56.5459 32.9097 56.5893 32.8742C56.6326 32.8386 56.687 32.8191 56.743 32.8191C56.7991 32.8191 56.8534 32.8386 56.8968 32.8742C56.9401 32.9097 56.9698 32.9592 56.9808 33.0142C56.6824 37.1256 56.1044 48.0799 56.9808 49.413C57.6707 50.5131 59.0598 50.4665 61.1201 49.2639L61.2692 49.18C61.6653 48.9175 62.1381 48.7959 62.6116 48.8348C63.0851 48.8737 63.5318 49.0708 63.8797 49.3944C64.3899 50.0469 64.7082 50.8288 64.7988 51.6522C64.8894 52.4756 64.7486 53.3079 64.3924 54.0558C63.7234 55.2737 62.69 56.2517 61.4371 56.8526C61.4182 56.8783 61.3924 56.8981 61.3627 56.9097C61.3329 56.9212 61.3005 56.9241 61.2692 56.9179Z" fill="#56546E"/>
<path d="M29.0777 138.185L30.6719 115.129" stroke="#56546E" stroke-width="1.74468" stroke-miterlimit="10"/>
<path d="M87.4289 138.185V115.129" stroke="#56546E" stroke-width="1.74468" stroke-miterlimit="10"/>
</g>
</svg>
