<svg width="656" height="568" viewBox="0 0 656 568" fill="none" xmlns="http://www.w3.org/2000/svg">
<g filter="url(#filter0_d_101_72)">
<path d="M5.35151 98.4851C6.841 46.9867 48.0351 5.50892 99.5345 4.05298C166.828 2.15051 258.309 0 328 0C398.264 0 490.679 2.18605 558.122 4.09989C608.926 5.54156 649.843 45.9424 651.71 96.7324C653.802 153.631 656 226.891 656 283.511C656 340.131 653.802 413.391 651.71 470.289C649.843 521.079 608.926 561.48 558.122 562.921C490.679 564.835 398.264 567.021 328 567.021C258.309 567.021 166.828 564.871 99.5346 562.968C48.0352 561.512 6.841 520.035 5.35151 468.536L0 283.511L5.35151 98.4851Z" fill="#8785A2"/>
</g>
<defs>
<filter id="filter0_d_101_72" x="-20.9362" y="-12.2128" width="697.872" height="608.894" filterUnits="userSpaceOnUse" color-interpolation-filters="sRGB">
<feFlood flood-opacity="0" result="BackgroundImageFix"/>
<feColorMatrix in="SourceAlpha" type="matrix" values="0 0 0 0 0 0 0 0 0 0 0 0 0 0 0 0 0 0 127 0" result="hardAlpha"/>
<feOffset dy="8.7234"/>
<feGaussianBlur stdDeviation="10.4681"/>
<feColorMatrix type="matrix" values="0 0 0 0 0.123721 0 0 0 0 0.121116 0 0 0 0 0.158884 0 0 0 0.08 0"/>
<feBlend mode="normal" in2="BackgroundImageFix" result="effect1_dropShadow_101_72"/>
<feBlend mode="normal" in="SourceGraphic" in2="effect1_dropShadow_101_72" result="shape"/>
</filter>
</defs>
</svg>
